<?xml version="1.0" encoding="UTF-8" standalone="no"?>
<svg xmlns:ffdec="https://www.free-decompiler.com/flash" xmlns:xlink="http://www.w3.org/1999/xlink" ffdec:objectType="shape" height="17.9px" width="103.95px" xmlns="http://www.w3.org/2000/svg">
  <g transform="matrix(1.0, 0.0, 0.0, 1.0, -0.05, -0.1)">
    <path d="M103.0 4.05 L103.0 3.05 102.0 3.05 101.0 3.05 100.0 3.05 99.0 3.05 93.0 3.05 92.0 3.05 91.0 3.05 91.0 4.05 91.0 8.05 91.0 9.0 91.0 14.0 91.0 15.05 92.0 15.05 102.0 15.05 103.0 15.05 103.0 14.0 103.0 11.0 103.0 10.0 103.0 4.05 M104.0 16.05 L90.0 16.05 90.0 2.05 104.0 2.05 104.0 16.05" fill="#000000" fill-rule="evenodd" stroke="none"/>
    <path d="M103.0 4.05 L102.0 4.05 102.0 3.05 103.0 3.05 103.0 4.05" fill="#3d3d32" fill-rule="evenodd" stroke="none"/>
    <path d="M102.0 3.05 L102.0 4.05 101.0 4.05 101.0 3.05 102.0 3.05 M93.0 4.05 L92.0 4.05 92.0 3.05 93.0 3.05 93.0 4.05" fill="#d7d5b8" fill-rule="evenodd" stroke="none"/>
    <path d="M102.0 4.05 L103.0 4.05 103.0 10.0 102.0 10.0 102.0 5.05 102.0 4.05 M102.0 11.0 L103.0 11.0 103.0 14.0 102.0 14.0 102.0 11.0" fill="#3b3a28" fill-rule="evenodd" stroke="none"/>
    <path d="M102.0 10.0 L103.0 10.0 103.0 11.0 102.0 11.0 102.0 10.0" fill="#3f3f2b" fill-rule="evenodd" stroke="none"/>
    <path d="M102.0 5.05 L102.0 10.0 102.0 11.0 102.0 14.0 92.0 14.0 92.0 9.0 92.0 8.05 92.0 4.05 93.0 4.05 99.0 4.05 100.0 4.05 101.0 4.05 101.0 5.05 93.0 5.05 93.0 6.05 93.0 7.05 93.0 8.05 94.0 8.05 94.0 9.0 94.0 10.0 95.0 10.0 95.0 11.0 95.0 12.0 96.05 12.0 96.05 13.0 97.05 13.0 98.0 13.0 98.0 12.0 99.0 12.0 99.0 11.0 100.0 11.0 100.0 10.0 100.0 9.0 101.0 9.0 101.0 8.05 101.0 7.05 101.0 6.05 101.0 5.05 102.0 5.05" fill="#767562" fill-rule="evenodd" stroke="none"/>
    <path d="M102.0 4.05 L102.0 5.05 101.0 5.05 101.0 4.05 102.0 4.05" fill="#7a7a65" fill-rule="evenodd" stroke="none"/>
    <path d="M102.0 15.05 L102.0 14.0 103.0 14.0 103.0 15.05 102.0 15.05" fill="#252419" fill-rule="evenodd" stroke="none"/>
    <path d="M102.0 14.0 L102.0 15.05 92.0 15.05 92.0 14.0 102.0 14.0" fill="#46452f" fill-rule="evenodd" stroke="none"/>
    <path d="M100.0 3.05 L101.0 3.05 101.0 4.05 100.0 4.05 100.0 3.05 M92.0 8.05 L92.0 9.0 91.0 9.0 91.0 8.05 92.0 8.05" fill="#d0cfab" fill-rule="evenodd" stroke="none"/>
    <path d="M99.0 3.05 L100.0 3.05 100.0 4.05 99.0 4.05 99.0 3.05" fill="#d8d6b9" fill-rule="evenodd" stroke="none"/>
    <path d="M99.0 4.05 L93.0 4.05 93.0 3.05 99.0 3.05 99.0 4.05" fill="#d3d2b1" fill-rule="evenodd" stroke="none"/>
    <path d="M98.0 12.0 L98.0 13.0 97.05 13.0 97.05 12.0 97.05 11.0 98.0 11.0 98.0 12.0 M98.0 10.0 L98.0 9.0 99.0 9.0 99.0 10.0 98.0 10.0" fill="#2e2d29" fill-rule="evenodd" stroke="none"/>
    <path d="M101.0 7.05 L101.0 8.05 100.0 8.05 100.0 7.05 101.0 7.05 M100.0 9.0 L100.0 10.0 99.0 10.0 99.0 9.0 100.0 9.0 M99.0 11.0 L99.0 12.0 98.0 12.0 98.0 11.0 99.0 11.0 M97.05 13.0 L96.05 13.0 96.05 12.0 95.0 12.0 95.0 11.0 96.05 11.0 96.05 12.0 97.05 12.0 97.05 13.0 M95.0 10.0 L94.0 10.0 94.0 9.0 95.0 9.0 95.0 10.0 M94.0 8.05 L93.0 8.05 93.0 7.05 94.0 7.05 94.0 8.05" fill="#545446" fill-rule="evenodd" stroke="none"/>
    <path d="M96.05 11.0 L97.05 11.0 97.05 12.0 96.05 12.0 96.05 11.0" fill="#33332e" fill-rule="evenodd" stroke="none"/>
    <path d="M96.05 10.0 L97.05 10.0 97.05 11.0 96.05 11.0 96.05 10.0" fill="#262625" fill-rule="evenodd" stroke="none"/>
    <path d="M96.05 9.0 L96.05 8.05 95.0 8.05 95.0 7.05 94.0 7.05 94.0 6.05 100.0 6.05 100.0 7.05 99.0 7.05 99.0 8.05 99.0 9.0 98.0 9.0 98.0 10.0 98.0 11.0 97.05 11.0 97.05 10.0 96.05 10.0 96.05 9.0" fill="#45433d" fill-rule="evenodd" stroke="none"/>
    <path d="M95.0 11.0 L95.0 10.0 96.05 10.0 96.05 11.0 95.0 11.0" fill="#424236" fill-rule="evenodd" stroke="none"/>
    <path d="M96.05 9.0 L96.05 10.0 95.0 10.0 95.0 9.0 96.05 9.0" fill="#32312b" fill-rule="evenodd" stroke="none"/>
    <path d="M95.0 9.0 L95.0 8.05 96.05 8.05 96.05 9.0 95.0 9.0" fill="#292826" fill-rule="evenodd" stroke="none"/>
    <path d="M94.0 9.0 L94.0 8.05 95.0 8.05 95.0 9.0 94.0 9.0" fill="#3d3d33" fill-rule="evenodd" stroke="none"/>
    <path d="M100.0 10.0 L100.0 11.0 99.0 11.0 99.0 10.0 100.0 10.0" fill="#72715b" fill-rule="evenodd" stroke="none"/>
    <path d="M98.0 11.0 L98.0 10.0 99.0 10.0 99.0 11.0 98.0 11.0" fill="#262622" fill-rule="evenodd" stroke="none"/>
    <path d="M99.0 9.0 L99.0 8.05 100.0 8.05 100.0 9.0 99.0 9.0" fill="#22221f" fill-rule="evenodd" stroke="none"/>
    <path d="M101.0 8.05 L101.0 9.0 100.0 9.0 100.0 8.05 101.0 8.05" fill="#71715a" fill-rule="evenodd" stroke="none"/>
    <path d="M99.0 8.05 L99.0 7.05 100.0 7.05 100.0 8.05 99.0 8.05" fill="#2b2b26" fill-rule="evenodd" stroke="none"/>
    <path d="M92.0 3.05 L92.0 4.05 91.0 4.05 91.0 3.05 92.0 3.05" fill="#ededea" fill-rule="evenodd" stroke="none"/>
    <path d="M92.0 4.05 L92.0 8.05 91.0 8.05 91.0 4.05 92.0 4.05" fill="#d3d2b2" fill-rule="evenodd" stroke="none"/>
    <path d="M92.0 9.0 L92.0 14.0 91.0 14.0 91.0 9.0 92.0 9.0" fill="#d4d2b3" fill-rule="evenodd" stroke="none"/>
    <path d="M101.0 6.05 L101.0 7.05 100.0 7.05 100.0 6.05 101.0 6.05 M93.0 7.05 L93.0 6.05 94.0 6.05 94.0 7.05 93.0 7.05" fill="#131313" fill-rule="evenodd" stroke="none"/>
    <path d="M101.0 5.05 L101.0 6.05 100.0 6.05 94.0 6.05 93.0 6.05 93.0 5.05 101.0 5.05" fill="#171717" fill-rule="evenodd" stroke="none"/>
    <path d="M92.0 15.05 L91.0 15.05 91.0 14.0 92.0 14.0 92.0 15.05" fill="#92917a" fill-rule="evenodd" stroke="none"/>
    <path d="M95.0 8.05 L94.0 8.05 94.0 7.05 95.0 7.05 95.0 8.05" fill="#32322b" fill-rule="evenodd" stroke="none"/>
    <path d="M85.0 0.1 L86.0 0.1 86.0 18.0 85.0 18.0 85.0 17.0 85.0 15.0 85.0 14.0 85.0 13.0 85.0 11.0 85.0 7.1 85.0 5.1 85.0 4.1 85.0 2.1 85.0 0.1 M1.05 18.0 L0.05 18.0 0.05 0.1 1.05 0.1 1.05 2.1 1.05 4.1 1.05 5.1 1.05 7.1 1.05 11.0 1.05 13.0 1.05 14.0 1.05 15.0 1.05 17.0 1.05 18.0" fill="#147273" fill-rule="evenodd" stroke="none"/>
    <path d="M85.0 4.1 L85.0 5.1 1.05 5.1 1.05 4.1 85.0 4.1" fill="#001428" fill-rule="evenodd" stroke="none"/>
    <path d="M85.0 2.1 L85.0 4.1 1.05 4.1 1.05 2.1 85.0 2.1" fill="#000e24" fill-rule="evenodd" stroke="none"/>
    <path d="M85.0 0.1 L85.0 2.1 1.05 2.1 1.05 0.1 85.0 0.1" fill="#001611" fill-rule="evenodd" stroke="none"/>
    <path d="M85.0 7.1 L85.0 11.0 1.05 11.0 1.05 7.1 85.0 7.1" fill="#002039" fill-rule="evenodd" stroke="none"/>
    <path d="M85.0 5.1 L85.0 7.1 1.05 7.1 1.05 5.1 85.0 5.1" fill="#001a32" fill-rule="evenodd" stroke="none"/>
    <path d="M85.0 17.0 L85.0 18.0 1.05 18.0 1.05 17.0 85.0 17.0" fill="#002423" fill-rule="evenodd" stroke="none"/>
    <path d="M85.0 15.0 L85.0 17.0 1.05 17.0 1.05 15.0 85.0 15.0" fill="#001d2c" fill-rule="evenodd" stroke="none"/>
    <path d="M85.0 14.0 L85.0 15.0 1.05 15.0 1.05 14.0 85.0 14.0" fill="#000c26" fill-rule="evenodd" stroke="none"/>
    <path d="M85.0 13.0 L85.0 14.0 1.05 14.0 1.05 13.0 85.0 13.0" fill="#00142d" fill-rule="evenodd" stroke="none"/>
    <path d="M85.0 11.0 L85.0 13.0 1.05 13.0 1.05 11.0 85.0 11.0" fill="#001a31" fill-rule="evenodd" stroke="none"/>
  </g>
</svg>
